<?xml version="1.0" standalone="no"?>
<!DOCTYPE svg PUBLIC "-//W3C//DTD SVG 20010904//EN"
 "http://www.w3.org/TR/2001/REC-SVG-20010904/DTD/svg10.dtd">
<svg version="1.0" xmlns="http://www.w3.org/2000/svg"
 width="1.920000pt" height="1.920000pt" viewBox="0 0 1.920000 1.920000"
 preserveAspectRatio="xMidYMid meet">
<metadata>
Created by potrace 1.16, written by Peter Selinger 2001-2019
</metadata>
<g transform="translate(0.000000,1.920000) scale(0.000384,-0.000512)"
fill="#000000" stroke="none">
<path d="M2495 3560 c21 -68 -60 -172 -196 -250 -239 -137 -303 -189 -350
-286 -54 -110 -44 -220 32 -333 49 -74 107 -117 227 -170 121 -53 168 -86 198
-136 26 -45 36 -128 21 -175 l-8 -25 20 25 c27 34 45 111 37 165 -12 80 -58
131 -195 222 -193 127 -241 184 -241 283 0 93 54 158 266 323 199 155 252 240
210 342 -16 37 -32 49 -21 15z"/>
<path d="M2310 2997 c-13 -7 -35 -28 -48 -47 -20 -30 -23 -44 -19 -91 9 -99
63 -180 167 -246 121 -77 155 -128 174 -266 l13 -92 26 55 c40 81 38 184 -3
266 -36 72 -52 88 -155 151 -43 27 -92 66 -108 86 -37 46 -47 118 -23 165 18
35 14 38 -24 19z"/>
<path d="M2320 2080 c-117 -13 -274 -45 -340 -70 -59 -22 -58 -22 95 12 88 20
129 22 355 22 270 1 357 -9 507 -55 319 -99 317 -263 -2 -357 -151 -45 -248
-56 -495 -57 -154 0 -261 5 -310 13 -213 38 -355 94 -410 160 l-31 37 12 -32
c15 -44 84 -105 161 -142 197 -94 584 -141 906 -112 74 7 136 10 139 7 10 -9
-16 -225 -37 -308 -34 -133 -83 -222 -170 -308 -73 -73 -88 -82 -240 -149 -23
-10 -22 -11 10 -5 131 21 278 105 361 207 96 119 173 304 207 500 l17 98 96
32 c450 151 319 402 -259 493 -117 18 -454 26 -572 14z"/>
<path d="M1385 1681 c-172 -78 -179 -349 -12 -512 56 -55 78 -69 273 -179 123
-68 184 -120 184 -155 0 -26 -17 -35 -63 -35 -24 0 -28 -3 -19 -12 6 -6 32
-11 57 -11 58 0 80 20 80 73 l0 39 44 -52 c218 -254 499 -363 782 -303 386 82
686 478 735 970 4 38 3 67 -2 65 -5 -2 -34 -17 -64 -33 -30 -16 -84 -40 -120
-52 -36 -13 -68 -29 -72 -36 -4 -7 -19 -55 -33 -107 -51 -188 -150 -357 -279
-478 -138 -130 -268 -186 -431 -187 -68 0 -119 6 -159 18 -234 70 -428 268
-536 546 -26 68 -70 245 -70 283 0 16 -4 26 -10 22 -6 -3 -15 6 -21 22 -15 40
-67 92 -114 114 -51 23 -99 24 -150 0z m161 -87 c34 -16 73 -50 106 -91 9 -12
24 -63 33 -114 17 -103 61 -242 100 -319 14 -27 25 -52 25 -56 0 -3 -18 10
-39 29 -22 19 -88 68 -147 108 -59 39 -126 91 -150 115 -81 84 -111 186 -79
269 26 70 82 92 151 59z"/>
<path d="M1785 1363 c13 -95 36 -170 79 -258 72 -145 175 -251 311 -321 l70
-35 -40 33 c-187 154 -325 350 -395 561 -13 37 -25 67 -27 67 -2 0 -1 -21 2
-47z"/>
<path d="M1573 880 c-171 -61 -273 -160 -273 -266 0 -66 53 -149 134 -211 235
-178 645 -265 1186 -250 374 10 673 72 890 183 245 126 309 299 163 435 -51
47 -78 63 -168 99 -106 42 -114 37 -20 -12 100 -53 191 -139 200 -191 33 -176
-177 -289 -685 -369 -128 -20 -182 -22 -460 -22 -341 0 -464 11 -690 61 -295
65 -445 142 -479 246 -28 85 44 187 191 270 90 51 92 56 11 27z"/>
<path d="M1557 609 c9 -33 78 -90 148 -124 81 -39 296 -100 423 -121 130 -21
441 -29 617 -15 371 30 684 132 741 242 8 17 14 33 11 35 -2 2 -9 -6 -16 -19
-30 -55 -127 -97 -323 -137 -200 -42 -342 -54 -633 -54 -287 0 -408 11 -625
54 -184 37 -253 63 -306 116 -24 24 -39 34 -37 23z"/>
</g>
</svg>
